<svg width="135" height="32" viewBox="0 0 135 32" fill="none" xmlns="http://www.w3.org/2000/svg">
<path fill-rule="evenodd" clip-rule="evenodd" d="M7.99999 2V32H0V2H7.99999Z" fill="#1B1B1B"/>
<path fill-rule="evenodd" clip-rule="evenodd" d="M12 2H29C34.5229 2 39 6.47715 39 12C39 17.5229 34.5229 22 29 22H20V32H12V2ZM20 14H29C30.1046 14 31 13.1046 31 12C31 10.8954 30.1046 10 29 10H20V14Z" fill="#1B1B1B"/>
<path fill-rule="evenodd" clip-rule="evenodd" d="M69 2V17.5C69 21.0898 71.9101 24 75.5 24C79.0899 24 82.0001 21.0898 82.0001 17.5V2H90.0003V17.5C90.0003 25.5082 83.5083 32 75.5 32C67.4919 32 61 25.5082 61 17.5V2H69Z" fill="#1B1B1B"/>
<path fill-rule="evenodd" clip-rule="evenodd" d="M42 16C42 8.268 48.268 2 56 2H58V10H56C52.6863 10 50 12.6863 50 16V17C50 25.2842 43.2843 32 35 32H34V24H35C38.866 24 42 20.866 42 17V16Z" fill="#1B1B1B"/>
<path d="M135 3C135 4.65686 133.657 6 132 6C130.343 6 129 4.65686 129 3C129 1.34314 130.343 0 132 0C133.657 0 135 1.34314 135 3Z" fill="#1B1B1B"/>
<path d="M98.5899 32L102.407 16.0144L105.246 25.6314C106.938 31.3672 115.062 31.3672 116.755 25.6314L119.592 16.0144L123.41 32H131.635L125.632 6.86355C124.205 0.885908 115.781 0.664582 114.041 6.55908L111 16.8666L107.958 6.55909C106.219 0.664616 97.7951 0.885877 96.3676 6.86354L90.3653 32H98.5899Z" fill="#1B1B1B"/>
</svg>
