<svg width="190" height="32" viewBox="0 0 190 32" fill="none" xmlns="http://www.w3.org/2000/svg">
<path d="M24.4287 26.3831H24.4062C24.1596 29.1224 21.8583 31.2698 19.0547 31.2698C17.2308 31.2698 15.62 30.3601 14.6484 28.9709L14.6436 28.9749L14.5947 28.8938C14.4924 28.742 14.3982 28.5844 14.3115 28.4221L7.81738 17.6135V31.2688H0V6.84009H0.0224609C0.269361 4.10104 2.57074 1.95454 5.37402 1.95435C7.18241 1.95435 8.78078 2.84877 9.75488 4.21802L9.75781 4.21704L9.77344 4.24243C9.92091 4.45224 10.0532 4.67318 10.1699 4.90356L16.6113 15.6223V1.95435H24.4287V26.3831Z" fill="#030712"/>
<path fill-rule="evenodd" clip-rule="evenodd" d="M149.506 1.95435V31.2693H141.689V1.95435H149.506Z" fill="#030712"/>
<path d="M43.3542 1.46594C51.4802 1.466 58.0979 8.02443 58.362 16.2159H58.3708V17.2511H58.362C58.0978 25.4425 51.4801 32.001 43.3542 32.0011C35.2285 32.001 28.6107 25.4425 28.3464 17.2511H28.3376V16.2159H28.3464C28.6106 8.02444 35.2285 1.46602 43.3542 1.46594ZM43.3542 9.88391C39.6365 9.88399 36.6228 12.9472 36.6228 16.7247V16.7423C36.6229 20.5198 39.6366 23.5821 43.3542 23.5822C47.0719 23.5821 50.0855 20.5198 50.0857 16.7423V16.7247C50.0856 12.9472 47.0719 9.88397 43.3542 9.88391Z" fill="#030712"/>
<path d="M176.091 1.95923C178.156 2.06413 179.798 3.77168 179.798 5.86255C179.798 7.95363 178.156 9.66193 176.091 9.76685L175.89 9.77173H171.003V31.2698H163.187V9.77173H154.392V1.95435H175.89L176.091 1.95923Z" fill="#030712"/>
<path d="M136.803 9.77173H125.077V15.635H131.917V23.4524H125.077V31.2698H117.26V5.86255C117.26 3.70422 119.01 1.95459 121.168 1.95435H136.803V9.77173Z" fill="#030712"/>
<path d="M91.3399 9.4853L86.5143 31.2703H95.2004L99.5435 12.456L103.887 31.2703H112.573L107.747 9.4853C107.747 9.4853 106.299 1.5635 99.5435 1.5635C92.7876 1.5635 91.3399 9.4853 91.3399 9.4853Z" fill="#030712"/>
<path d="M64.2391 23.8697L59.4134 2.08472H68.0996L72.4427 20.899L76.7858 2.08472H85.4719L80.6463 23.8697C80.6463 23.8697 79.1986 31.7915 72.4427 31.7915C65.6868 31.7915 64.2391 23.8697 64.2391 23.8697Z" fill="#030712"/>
<path d="M189.57 2.9315C189.57 4.55052 188.258 5.863 186.638 5.863C185.019 5.863 183.707 4.55052 183.707 2.9315C183.707 1.31247 185.019 0 186.638 0C188.258 0 189.57 1.31247 189.57 2.9315Z" fill="#030712"/>
</svg>
