<svg width="190" height="32" viewBox="0 0 190 32" fill="none" xmlns="http://www.w3.org/2000/svg">
<path d="M24.4287 26.3838H24.4062C24.1596 29.1232 21.8583 31.2705 19.0547 31.2705C17.2308 31.2705 15.62 30.3609 14.6484 28.9717L14.6436 28.9756L14.5947 28.8945C14.4924 28.7427 14.3982 28.5852 14.3115 28.4229L7.81738 17.6143V31.2695H0V6.84082H0.0224609C0.269361 4.10177 2.57074 1.95527 5.37402 1.95508C7.1824 1.95508 8.78078 2.8495 9.75488 4.21875L9.75781 4.21777L9.77344 4.24316C9.92091 4.45297 10.0532 4.67392 10.1699 4.9043L16.6113 15.623V1.95508H24.4287V26.3838Z" fill="white"/>
<path fill-rule="evenodd" clip-rule="evenodd" d="M149.506 1.95508V31.2701H141.689V1.95508H149.506Z" fill="white"/>
<path d="M43.354 1.4668C51.4799 1.46685 58.0977 8.02528 58.3618 16.2168H58.3706V17.252H58.3618C58.0976 25.4434 51.4799 32.0019 43.354 32.002C35.2283 32.0019 28.6104 25.4434 28.3462 17.252H28.3374V16.2168H28.3462C28.6104 8.02529 35.2282 1.46687 43.354 1.4668ZM43.354 9.88477C39.6363 9.88484 36.6226 12.948 36.6226 16.7256V16.7432C36.6227 20.5207 39.6364 23.5829 43.354 23.583C47.0716 23.583 50.0853 20.5207 50.0854 16.7432V16.7256C50.0854 12.948 47.0717 9.88482 43.354 9.88477Z" fill="white"/>
<path d="M176.091 1.95996C178.156 2.06487 179.798 3.77241 179.798 5.86328C179.798 7.95437 178.156 9.66267 176.091 9.76758L175.89 9.77246H171.003V31.2705H163.187V9.77246H154.392V1.95508H175.89L176.091 1.95996Z" fill="white"/>
<path d="M136.803 9.77246H125.077V15.6357H131.917V23.4531H125.077V31.2705H117.26V5.86328C117.26 3.70495 119.01 1.95532 121.168 1.95508H136.803V9.77246Z" fill="white"/>
<path d="M91.3398 9.48457L86.5142 31.2695H95.2003L99.5434 12.4552L103.887 31.2695H112.573L107.747 9.48457C107.747 9.48457 106.299 1.56277 99.5434 1.56277C92.7875 1.56277 91.3398 9.48457 91.3398 9.48457Z" fill="white"/>
<path d="M64.2392 23.8689L59.4136 2.08398H68.0997L72.4428 20.8983L76.7859 2.08398H85.4721L80.6464 23.8689C80.6464 23.8689 79.1987 31.7908 72.4428 31.7908C65.6869 31.7908 64.2392 23.8689 64.2392 23.8689Z" fill="white"/>
<path d="M189.57 2.9315C189.57 4.55052 188.258 5.863 186.638 5.863C185.019 5.863 183.707 4.55052 183.707 2.9315C183.707 1.31247 185.019 0 186.638 0C188.258 0 189.57 1.31247 189.57 2.9315Z" fill="white"/>
</svg>
