<svg width="376" height="321" viewBox="0 0 376 321" fill="none" xmlns="http://www.w3.org/2000/svg">
<path d="M188.676 320.5C291.391 320.5 374.659 318.18 374.659 315.319C374.659 312.457 291.391 310.137 188.676 310.137C85.9599 310.137 2.69238 312.457 2.69238 315.319C2.69238 318.18 85.9599 320.5 188.676 320.5Z" fill="#2E353A"/>
<path d="M282.897 310.596H265.689V0.499756L282.897 20.5081V310.596Z" stroke="#2E353A" stroke-linecap="round" stroke-linejoin="round"/>
<path d="M265.853 237.579H282.735L265.853 221.261H282.735L265.853 237.579Z" stroke="#2E353A" stroke-linecap="round" stroke-linejoin="round"/>
<path d="M265.853 220.85H282.735L265.853 204.531H282.735L265.853 220.85Z" stroke="#2E353A" stroke-linecap="round" stroke-linejoin="round"/>
<path d="M265.853 270.895H282.735L265.853 254.576H282.735L265.853 270.895Z" stroke="#2E353A" stroke-linecap="round" stroke-linejoin="round"/>
<path d="M265.853 254.165H282.735L265.853 237.847H282.735L265.853 254.165Z" stroke="#2E353A" stroke-linecap="round" stroke-linejoin="round"/>
<path d="M265.853 204.12H282.735L265.853 187.802H282.735L265.853 204.12Z" stroke="#2E353A" stroke-linecap="round" stroke-linejoin="round"/>
<path d="M265.853 187.391H282.735L265.853 171.073H282.735L265.853 187.391Z" stroke="#2E353A" stroke-linecap="round" stroke-linejoin="round"/>
<path d="M265.853 170.662H282.735L265.853 154.343H282.735L265.853 170.662Z" stroke="#2E353A" stroke-linecap="round" stroke-linejoin="round"/>
<path d="M265.853 153.932H282.735L265.853 137.614H282.735L265.853 153.932Z" stroke="#2E353A" stroke-linecap="round" stroke-linejoin="round"/>
<path d="M265.853 137.203H282.735L265.853 120.885H282.735L265.853 137.203Z" stroke="#2E353A" stroke-linecap="round" stroke-linejoin="round"/>
<path d="M265.853 120.474H282.735L265.853 104.155H282.735L265.853 120.474Z" stroke="#2E353A" stroke-linecap="round" stroke-linejoin="round"/>
<path d="M265.853 103.744H282.735L265.853 87.4258H282.735L265.853 103.744Z" stroke="#2E353A" stroke-linecap="round" stroke-linejoin="round"/>
<path d="M265.853 87.0146H282.735L265.853 70.6963H282.735L265.853 87.0146Z" stroke="#2E353A" stroke-linecap="round" stroke-linejoin="round"/>
<path d="M265.853 70.2851H282.735L265.853 53.9668H282.735L265.853 70.2851Z" stroke="#2E353A" stroke-linecap="round" stroke-linejoin="round"/>
<path d="M265.853 53.5559H282.735L265.853 37.2375H282.735L265.853 53.5559Z" stroke="#2E353A" stroke-linecap="round" stroke-linejoin="round"/>
<path d="M265.853 36.8264H282.735L265.853 20.5081H282.735L265.853 36.8264Z" stroke="#2E353A" stroke-linecap="round" stroke-linejoin="round"/>
<path d="M362.778 37.2758L354.442 32.0276H294.962L287.696 37.2758H362.778Z" stroke="#2E353A" stroke-linecap="round" stroke-linejoin="round"/>
<path d="M364.153 36.8267H218.847V40.6505H364.153V36.8267Z" fill="#2E353A" stroke="#2E353A" stroke-linecap="round" stroke-linejoin="round"/>
<path d="M354.441 32.0275L265.689 0.499756L294.961 32.0275" stroke="#2E353A" stroke-linecap="round" stroke-linejoin="round"/>
<path d="M265.689 0.499756L218.847 36.8264" stroke="#2E353A" stroke-linecap="round" stroke-linejoin="round"/>
<path d="M295.324 44.9521H259.476V67.8953H295.324V44.9521Z" fill="#2E353A" stroke="#2E353A" stroke-linecap="round" stroke-linejoin="round"/>
<path d="M295.324 288.111H259.476V311.054H295.324V288.111Z" fill="#2E353A" stroke="#2E353A" stroke-linecap="round" stroke-linejoin="round"/>
<path d="M287.848 49.7319H266.941V56.4237H287.848V49.7319Z" fill="white" stroke="#2E353A" stroke-linecap="round" stroke-linejoin="round"/>
<path d="M364.154 40.6501V81.8714" stroke="#2E353A" stroke-linecap="round" stroke-linejoin="round"/>
<path d="M369.612 95.9431H358.991V107.979H369.612V95.9431Z" fill="#2E353A" stroke="#2E353A" stroke-linecap="round" stroke-linejoin="round"/>
<path d="M358.991 95.9431L364.297 81.0874L369.612 95.9431" stroke="#2E353A" stroke-linecap="round" stroke-linejoin="round"/>
<path d="M222.594 285.186V263.925H159.93V285.205C159.92 292.151 157.562 298.888 153.239 304.324L150.495 307.785H231.991L229.238 304.324C224.931 298.875 222.59 292.132 222.594 285.186Z" fill="white" stroke="#2E353A" stroke-width="1.09543" stroke-linecap="round" stroke-linejoin="round"/>
<g style="mix-blend-mode:multiply">
<path d="M156.078 300.089H226.447C223.93 295.526 222.615 290.397 222.623 285.186V263.925H159.931V285.205C159.927 290.413 158.601 295.534 156.078 300.089Z" fill="#EAFE63"/>
</g>
<path d="M222.594 267.109H159.931V276.095H222.594V267.109Z" fill="#2E353A" stroke="#2E353A" stroke-width="1.09543" stroke-linecap="round" stroke-linejoin="round"/>
<path d="M308.316 81.7185H74.209C69.3042 81.7185 65.3281 85.6946 65.3281 90.5994V261.736C65.3281 266.641 69.3042 270.617 74.209 270.617H308.316C313.22 270.617 317.196 266.641 317.196 261.736V90.5994C317.196 85.6946 313.22 81.7185 308.316 81.7185Z" fill="#2E353A" stroke="#2E353A" stroke-width="1.09543" stroke-linecap="round" stroke-linejoin="round"/>
<path d="M65.3281 241.26H317.196V261.736C317.196 264.092 316.261 266.351 314.595 268.016C312.93 269.682 310.671 270.617 308.316 270.617H74.2568C71.9015 270.617 69.6426 269.682 67.9771 268.016C66.3116 266.351 65.3759 264.092 65.3759 261.736V241.26H65.3281Z" fill="white" stroke="#2E353A" stroke-width="1.09543" stroke-linecap="round" stroke-linejoin="round"/>
<path d="M304.521 93.4771H77.9951V226.93H304.521V93.4771Z" fill="#EAFE63" stroke="#2E353A" stroke-width="1.09543" stroke-linecap="round" stroke-linejoin="round"/>
<path d="M195.903 255.943C195.905 255.024 195.634 254.125 195.125 253.359C194.616 252.594 193.891 251.997 193.042 251.644C192.193 251.291 191.259 251.198 190.357 251.376C189.455 251.554 188.626 251.996 187.975 252.645C187.325 253.294 186.881 254.122 186.701 255.024C186.521 255.925 186.613 256.86 186.964 257.709C187.315 258.559 187.911 259.285 188.675 259.796C189.439 260.307 190.338 260.58 191.257 260.58C191.867 260.581 192.471 260.462 193.035 260.229C193.598 259.997 194.11 259.656 194.542 259.225C194.973 258.794 195.316 258.283 195.549 257.72C195.783 257.157 195.903 256.553 195.903 255.943Z" fill="#2E353A" stroke="#2E353A" stroke-width="1.09543" stroke-linecap="round" stroke-linejoin="round"/>
<path d="M232.011 307.776H150.524V311.571H232.011V307.776Z" fill="white" stroke="#2E353A" stroke-width="1.09543" stroke-linecap="round" stroke-linejoin="round"/>
<path d="M264.982 126.917C267.606 124.287 269.545 121.054 270.627 117.5C271.708 113.946 271.9 110.181 271.186 106.535L256.971 120.751C256.163 121.554 255.07 122.005 253.931 122.005C252.792 122.005 251.699 121.554 250.891 120.751L239.075 108.935C238.675 108.535 238.357 108.061 238.14 107.538C237.924 107.016 237.812 106.456 237.812 105.89C237.812 105.325 237.924 104.764 238.14 104.242C238.357 103.72 238.675 103.245 239.075 102.845L253.281 88.6397C249.3 87.8622 245.183 88.1674 241.36 89.5234C237.537 90.8794 234.147 93.2365 231.546 96.3488C228.944 99.4611 227.226 103.214 226.569 107.217C225.913 111.22 226.343 115.326 227.814 119.106L191.133 154.945L187.596 151.399L193.332 145.663C193.625 145.365 193.789 144.963 193.789 144.545C193.789 144.126 193.625 143.725 193.332 143.426L188.858 138.952C188.563 138.657 188.162 138.492 187.745 138.492C187.327 138.492 186.926 138.657 186.631 138.952L184.394 141.189L179.547 136.352L181.411 134.488C181.806 134.092 182.027 133.556 182.027 132.997C182.027 132.437 181.806 131.901 181.411 131.505L141.385 91.4789C140.431 90.5239 139.299 89.7663 138.052 89.2494C136.806 88.7324 135.469 88.4664 134.12 88.4664C132.77 88.4664 131.434 88.7324 130.187 89.2494C128.94 89.7663 127.808 90.5239 126.854 91.4789L122.763 95.5705C121.808 96.5232 121.051 97.655 120.534 98.9008C120.017 100.147 119.751 101.482 119.751 102.831C119.751 104.18 120.017 105.515 120.534 106.761C121.051 108.007 121.808 109.139 122.763 110.092L162.789 150.127C163.185 150.522 163.721 150.744 164.28 150.744C164.839 150.744 165.376 150.522 165.772 150.127L167.636 148.263L172.473 153.11L170.246 155.337C170.098 155.484 169.981 155.658 169.901 155.85C169.822 156.042 169.78 156.248 169.78 156.456C169.78 156.664 169.822 156.87 169.901 157.062C169.981 157.254 170.098 157.428 170.246 157.574L174.71 162.048C175.008 162.341 175.41 162.506 175.828 162.506C176.247 162.506 176.648 162.341 176.947 162.048L182.683 156.313L186.162 159.792L155.744 189.427C151.963 187.957 147.857 187.528 143.854 188.184C139.851 188.841 136.098 190.56 132.985 193.161C129.872 195.762 127.514 199.15 126.157 202.973C124.799 206.796 124.492 210.912 125.267 214.894L139.483 200.688C139.882 200.288 140.357 199.97 140.879 199.754C141.402 199.537 141.962 199.426 142.527 199.426C143.093 199.426 143.653 199.537 144.175 199.754C144.698 199.97 145.173 200.288 145.572 200.688L157.426 212.428C157.826 212.827 158.144 213.302 158.361 213.824C158.577 214.347 158.689 214.907 158.689 215.472C158.689 216.038 158.577 216.598 158.361 217.121C158.144 217.643 157.826 218.118 157.426 218.517L143.22 232.723C147.202 233.499 151.318 233.193 155.141 231.837C158.964 230.481 162.353 228.124 164.955 225.012C167.557 221.901 169.277 218.148 169.935 214.146C170.593 210.143 170.166 206.037 168.697 202.256L199.116 172.621L240.595 214.053C239.999 215.589 239.862 217.265 240.202 218.878C240.541 220.49 241.342 221.969 242.507 223.134L252.516 233.143L264.523 221.127L254.514 211.128C253.348 209.963 251.87 209.162 250.257 208.822C248.645 208.483 246.968 208.62 245.432 209.216L204.02 167.803L240.738 132.002C244.837 133.597 249.311 133.965 253.616 133.062C257.92 132.159 261.869 130.024 264.982 126.917Z" fill="#2E353A" stroke="#2E353A" stroke-width="1.09543" stroke-linecap="round" stroke-linejoin="round"/>
<path d="M166.174 197.161L238.187 126.907C241.969 128.381 246.079 128.811 250.085 128.154C254.091 127.496 257.847 125.775 260.96 123.169C264.073 120.564 266.43 117.17 267.783 113.343C269.136 109.515 269.437 105.395 268.653 101.411L254.448 115.617C254.048 116.017 253.573 116.335 253.051 116.552C252.529 116.768 251.968 116.88 251.403 116.88C250.837 116.88 250.277 116.768 249.755 116.552C249.232 116.335 248.758 116.017 248.358 115.617L236.542 103.801C236.142 103.403 235.825 102.929 235.608 102.407C235.392 101.885 235.28 101.326 235.28 100.761C235.28 100.197 235.392 99.6373 235.608 99.1156C235.825 98.594 236.142 98.1202 236.542 97.7214L250.748 83.5062C246.765 82.7299 242.646 83.0373 238.822 84.3962C234.999 85.755 231.61 88.1156 229.01 91.2314C226.409 94.3472 224.694 98.1039 224.041 102.109C223.389 106.115 223.823 110.222 225.3 114.002L153.287 184.255C149.507 182.784 145.401 182.354 141.398 183.011C137.395 183.667 133.642 185.386 130.53 187.987C127.417 190.589 125.06 193.978 123.704 197.801C122.348 201.624 122.043 205.741 122.821 209.722L137.026 195.517C137.426 195.116 137.9 194.799 138.423 194.582C138.945 194.365 139.505 194.254 140.071 194.254C140.637 194.254 141.197 194.365 141.719 194.582C142.242 194.799 142.716 195.116 143.116 195.517L154.932 207.332C155.332 207.731 155.649 208.205 155.866 208.727C156.082 209.248 156.194 209.808 156.194 210.372C156.194 210.937 156.082 211.496 155.866 212.018C155.649 212.54 155.332 213.014 154.932 213.412L140.697 227.599C144.678 228.375 148.795 228.069 152.618 226.713C156.441 225.357 159.83 223 162.432 219.888C165.034 216.777 166.754 213.024 167.412 209.022C168.07 205.019 167.642 200.913 166.174 197.132V197.161Z" fill="white" stroke="#2E353A" stroke-miterlimit="10"/>
<path d="M160.628 189.79C160.078 189.238 159.769 188.491 159.769 187.711C159.769 186.932 160.078 186.184 160.628 185.632L225.376 122.643C225.929 122.092 226.679 121.783 227.46 121.783C228.241 121.783 228.99 122.092 229.544 122.643C230.095 123.197 230.404 123.946 230.404 124.727C230.404 125.509 230.095 126.258 229.544 126.811L164.796 189.79C164.243 190.342 163.493 190.651 162.712 190.651C161.931 190.651 161.182 190.342 160.628 189.79Z" fill="white" stroke="#2E353A" stroke-miterlimit="10"/>
<path d="M179.831 141.04L174.991 145.88L244.826 215.715L249.666 210.875L179.831 141.04Z" fill="white" stroke="#2E353A" stroke-miterlimit="10"/>
<path d="M261.989 216.032L249.982 228.039L239.973 218.039C238.38 216.446 237.485 214.284 237.485 212.031C237.485 209.778 238.38 207.617 239.973 206.023C240.762 205.234 241.698 204.609 242.728 204.182C243.758 203.755 244.862 203.536 245.977 203.536C247.092 203.536 248.196 203.755 249.226 204.182C250.256 204.609 251.192 205.234 251.98 206.023L261.989 216.032Z" fill="white" stroke="#2E353A" stroke-miterlimit="10"/>
<path d="M173.318 127.45L161.4 139.368L171.08 149.048L182.998 137.13L173.318 127.45Z" fill="white" stroke="#2E353A" stroke-miterlimit="10"/>
<path d="M120.251 90.3971L124.348 86.3007C125.301 85.3473 126.433 84.591 127.678 84.0751C128.924 83.5591 130.259 83.2935 131.607 83.2935C132.956 83.2935 134.291 83.5591 135.536 84.0751C136.782 84.591 137.914 85.3473 138.867 86.3007L178.898 126.332C179.293 126.726 179.514 127.261 179.514 127.819C179.514 128.377 179.293 128.911 178.898 129.306L163.256 144.948C162.862 145.342 162.327 145.564 161.769 145.564C161.211 145.564 160.676 145.342 160.282 144.948L120.251 104.917C118.326 102.991 117.244 100.38 117.244 97.657C117.244 94.934 118.326 92.3225 120.251 90.3971Z" fill="white" stroke="#2E353A" stroke-miterlimit="10"/>
<path d="M184.111 133.788L167.726 150.173C167.11 150.789 167.11 151.788 167.726 152.404L172.201 156.879C172.817 157.495 173.815 157.495 174.431 156.879L190.817 140.494C191.433 139.878 191.433 138.879 190.817 138.263L186.342 133.788C185.726 133.172 184.727 133.172 184.111 133.788Z" fill="white" stroke="#2E353A" stroke-miterlimit="10"/>
<path d="M165.495 139L162.206 142.298L122.897 102.989C122.459 102.551 122.214 101.958 122.214 101.34C122.214 100.721 122.459 100.128 122.897 99.6908C123.113 99.4731 123.37 99.3004 123.653 99.1825C123.936 99.0646 124.239 99.0039 124.546 99.0039C124.852 99.0039 125.156 99.0646 125.439 99.1825C125.722 99.3004 125.979 99.4731 126.195 99.6908L165.495 139Z" fill="white" stroke="#2E353A" stroke-miterlimit="10"/>
<path d="M171.106 133.388L167.799 136.687L128.489 97.3773C128.052 96.9399 127.807 96.3467 127.807 95.7282C127.807 95.1097 128.052 94.5166 128.489 94.0792C128.705 93.8615 128.962 93.6888 129.245 93.5709C129.528 93.453 129.832 93.3923 130.139 93.3923C130.445 93.3923 130.749 93.453 131.032 93.5709C131.315 93.6888 131.572 93.8615 131.788 94.0792L171.106 133.388Z" fill="white" stroke="#2E353A" stroke-miterlimit="10"/>
<path d="M176.718 127.777L173.41 131.047L134.101 91.7659C133.664 91.3285 133.418 90.7354 133.418 90.1169C133.418 89.4984 133.664 88.9053 134.101 88.4679C134.317 88.2502 134.574 88.0775 134.857 87.9596C135.14 87.8417 135.443 87.781 135.75 87.781C136.056 87.781 136.36 87.8417 136.643 87.9596C136.926 88.0775 137.183 88.2502 137.399 88.4679L176.718 127.777Z" fill="white" stroke="#2E353A" stroke-miterlimit="10"/>
<path d="M308.297 312.747H305.113L284.531 143.866H287.724L308.297 312.747Z" fill="white" stroke="#2E353A" stroke-miterlimit="10"/>
<path d="M333.152 312.747H329.969L309.387 143.866H312.58L333.152 312.747Z" fill="white" stroke="#2E353A" stroke-miterlimit="10"/>
<path d="M312.78 157.861H287.934L287.294 152.651H312.149L312.78 157.861Z" fill="white" stroke="#2E353A" stroke-miterlimit="10"/>
<path d="M315.122 177.095H290.276L289.646 171.885H314.491L315.122 177.095Z" fill="white" stroke="#2E353A" stroke-miterlimit="10"/>
<path d="M317.473 196.329H292.618L291.987 191.119H316.833L317.473 196.329Z" fill="white" stroke="#2E353A" stroke-miterlimit="10"/>
<path d="M319.815 215.573H294.97L294.329 210.363H319.175L319.815 215.573Z" fill="white" stroke="#2E353A" stroke-miterlimit="10"/>
<path d="M322.158 234.807H297.312L296.672 229.597H321.517L322.158 234.807Z" fill="white" stroke="#2E353A" stroke-miterlimit="10"/>
<path d="M324.499 254.041H299.653L299.022 248.831H323.868L324.499 254.041Z" fill="white" stroke="#2E353A" stroke-miterlimit="10"/>
<path d="M326.842 273.284H301.996L301.365 268.074H326.211L326.842 273.284Z" fill="white" stroke="#2E353A" stroke-miterlimit="10"/>
<path d="M329.193 292.518H304.338L303.707 287.308H328.553L329.193 292.518Z" fill="white" stroke="#2E353A" stroke-miterlimit="10"/>
<path d="M287.552 154.697H290.802" stroke="#2E353A" stroke-width="0.5" stroke-miterlimit="10"/>
<path d="M288.316 156.227H294.626" stroke="#2E353A" stroke-width="0.5" stroke-miterlimit="10"/>
<path d="M312.397 156.227H307.809" stroke="#2E353A" stroke-width="0.5" stroke-miterlimit="10"/>
<path d="M314.692 174.763H310.485" stroke="#2E353A" stroke-width="0.5" stroke-miterlimit="10"/>
<path d="M290.61 175.719H300.361" stroke="#2E353A" stroke-width="0.5" stroke-miterlimit="10"/>
<path d="M292.331 193.681H300.744" stroke="#2E353A" stroke-width="0.5" stroke-miterlimit="10"/>
<path d="M292.715 195.211H297.303" stroke="#2E353A" stroke-width="0.5" stroke-miterlimit="10"/>
<path d="M319.654 212.6H314.501" stroke="#2E353A" stroke-width="0.5" stroke-miterlimit="10"/>
<path d="M319.28 214.129H310.677" stroke="#2E353A" stroke-width="0.5" stroke-miterlimit="10"/>
<path d="M326.766 271.325H318.879" stroke="#2E353A" stroke-width="0.5" stroke-miterlimit="10"/>
<path d="M301.672 269.891H306.452" stroke="#2E353A" stroke-width="0.5" stroke-miterlimit="10"/>
<path d="M317.684 271.325H311.47" stroke="#2E353A" stroke-width="0.5" stroke-miterlimit="10"/>
<path d="M304.062 289.727H310.753" stroke="#2E353A" stroke-width="0.5" stroke-miterlimit="10"/>
<path d="M305.496 291.4H313.144" stroke="#2E353A" stroke-width="0.5" stroke-miterlimit="10"/>
<path d="M297.848 233.086H299.999" stroke="#2E353A" stroke-width="0.5" stroke-miterlimit="10"/>
<path d="M321.268 232.608H313.381" stroke="#2E353A" stroke-width="0.5" stroke-miterlimit="10"/>
<path d="M122.026 211.768L118.24 216.701L35.8936 152.412L39.6887 147.479L122.026 211.768Z" fill="#2E353A" stroke="#2E353A" stroke-width="1.09543" stroke-linecap="round" stroke-linejoin="round"/>
<path d="M35.8936 211.768L39.6887 216.701L122.026 152.412L118.24 147.479L35.8936 211.768Z" fill="#2E353A" stroke="#2E353A" stroke-width="1.09543" stroke-linecap="round" stroke-linejoin="round"/>
<path d="M122.026 283.982L119.684 290.339L35.8936 224.626L38.293 218.211L122.026 283.982Z" fill="#2E353A" stroke="#2E353A" stroke-width="1.09543" stroke-linecap="round" stroke-linejoin="round"/>
<path d="M35.8936 283.982L36.4671 291.438L122.026 224.626L118.24 219.702L35.8936 283.982Z" fill="#2E353A" stroke="#2E353A" stroke-width="1.09543" stroke-linecap="round" stroke-linejoin="round"/>
<path d="M37.8342 146.801H34.4883V312.756H37.8342V146.801Z" fill="#2E353A" stroke="#2E353A" stroke-width="1.09543" stroke-linecap="round" stroke-linejoin="round"/>
<path d="M122.486 146.801H119.14V312.756H122.486V146.801Z" fill="#2E353A" stroke="#2E353A" stroke-width="1.09543" stroke-linecap="round" stroke-linejoin="round"/>
<path d="M105.918 211.768L102.122 216.701L19.7852 152.412L23.5708 147.479L105.918 211.768Z" fill="white" stroke="#2E353A" stroke-width="1.09543" stroke-linecap="round" stroke-linejoin="round"/>
<path d="M19.7852 211.768L23.5708 216.701L105.918 152.412L102.122 147.479L19.7852 211.768Z" fill="white" stroke="#2E353A" stroke-width="1.09543" stroke-linecap="round" stroke-linejoin="round"/>
<path d="M105.918 283.982L103.566 290.339L19.7852 224.626L20.9897 218.211L105.918 283.982Z" fill="white" stroke="#2E353A" stroke-width="1.09543" stroke-linecap="round" stroke-linejoin="round"/>
<path d="M19.7852 283.982L20.3587 291.438L105.918 224.626L102.122 219.702L19.7852 283.982Z" fill="white" stroke="#2E353A" stroke-width="1.09543" stroke-linecap="round" stroke-linejoin="round"/>
<path d="M21.717 146.801H18.3711V312.756H21.717V146.801Z" fill="white" stroke="#2E353A" stroke-width="1.09543" stroke-linecap="round" stroke-linejoin="round"/>
<path d="M106.367 146.801H103.021V312.756H106.367V146.801Z" fill="white" stroke="#2E353A" stroke-width="1.09543" stroke-linecap="round" stroke-linejoin="round"/>
<path d="M110.678 145.261H14.0684V150.519H110.678V145.261Z" fill="white" stroke="#2E353A" stroke-width="1.09543" stroke-linecap="round" stroke-linejoin="round"/>
<path d="M125.564 145.261H98.749V150.519H125.564V145.261Z" fill="#2E353A" stroke="#2E353A" stroke-width="1.09543" stroke-linecap="round" stroke-linejoin="round"/>
<path d="M110.678 214.129H14.0684V219.387H110.678V214.129Z" fill="white" stroke="#2E353A" stroke-width="1.09543" stroke-linecap="round" stroke-linejoin="round"/>
<path d="M125.564 214.129H98.749V219.387H125.564V214.129Z" fill="#2E353A" stroke="#2E353A" stroke-width="1.09543" stroke-linecap="round" stroke-linejoin="round"/>
<path d="M231.064 312.747H223.502L233.587 253.658H241.159L231.064 312.747Z" fill="#2E353A" stroke="#2E353A" stroke-width="0.972732" stroke-miterlimit="10"/>
<path d="M246.196 312.747H253.767L243.672 253.658H236.11L246.196 312.747Z" fill="white" stroke="#2E353A" stroke-width="0.972732" stroke-miterlimit="10"/>
<path d="M338.438 312.747H330.876L340.961 253.658H348.523L338.438 312.747Z" fill="#2E353A" stroke="#2E353A" stroke-width="0.972732" stroke-miterlimit="10"/>
<path d="M353.57 312.747H361.141L351.046 253.658H343.484L353.57 312.747Z" fill="white" stroke="#2E353A" stroke-width="0.972732" stroke-miterlimit="10"/>
<path d="M358.867 236.575H214.545V256.622H358.867V236.575Z" fill="#EAFE63" stroke="#2E353A" stroke-width="0.972732" stroke-miterlimit="10"/>
<path d="M362.385 236.575H218.062V256.622H362.385V236.575Z" fill="#EAFE63" stroke="#2E353A" stroke-width="0.972732" stroke-miterlimit="10"/>
<path d="M220.424 256.622H232.67L238.998 236.575H226.752L220.424 256.622Z" fill="#2E353A"/>
<path d="M268.91 236.575H256.655L250.326 256.622H262.582L268.91 236.575Z" fill="#2E353A"/>
<path d="M358.628 236.575H346.372L340.044 256.622H352.299L358.628 236.575Z" fill="#2E353A"/>
<path d="M328.716 236.575H316.47L310.142 256.622H322.388L328.716 236.575Z" fill="#2E353A"/>
<path d="M298.813 236.575H286.558L280.229 256.622H292.485L298.813 236.575Z" fill="#2E353A"/>
<path d="M361.59 245.475H337.71" stroke="#2E353A" stroke-miterlimit="10"/>
<path d="M361.171 248.821H357.404" stroke="#2E353A" stroke-miterlimit="10"/>
<path d="M217.45 247.99H241.33" stroke="#2E353A" stroke-miterlimit="10"/>
<path d="M217.862 244.214H248.033" stroke="#2E353A" stroke-miterlimit="10"/>
</svg>
