<svg width="36" height="36" viewBox="0 0 36 36" fill="none" xmlns="http://www.w3.org/2000/svg">
<g clip-path="url(#clip0_217_11309)">
<path fill-rule="evenodd" clip-rule="evenodd" d="M18 0.75C7.97025 0.75 0.75 9.7455 0.75 20.25C0.75 28.0898 5.88 35.25 12.9142 35.25C15.4695 35.25 17.8155 34.293 19.7347 32.709C21.324 31.3972 23.4637 30.7755 25.47 30.7755C31.167 30.7755 35.25 25.1355 35.25 18.918C35.25 9.8955 29.1607 0.75 18 0.75ZM3.75 20.25C3.75 10.968 10.0297 3.75 18 3.75C27.0893 3.75 32.25 11.1045 32.25 18.918C32.25 24.1403 28.9185 27.7755 25.47 27.7755C22.9058 27.7755 20.0505 28.5585 17.8253 30.3953C16.3778 31.59 14.6925 32.25 12.9142 32.25C8.169 32.25 3.75 27.1448 3.75 20.25ZM18 8.65875C13.632 8.65875 10.0905 12.1995 10.0905 16.5675C10.0905 20.9363 13.632 24.477 18 24.477C22.368 24.477 25.9087 20.9363 25.9087 16.5675C25.9087 12.1988 22.368 8.65875 18 8.65875ZM17.625 12.9548C17.625 12.6564 17.7435 12.3702 17.9545 12.1593C18.1655 11.9483 18.4516 11.8298 18.75 11.8298C19.8078 11.8301 20.8222 12.2506 21.5701 12.9987C22.318 13.7467 22.7383 14.7612 22.7385 15.819C22.7385 16.1174 22.62 16.4035 22.409 16.6145C22.198 16.8255 21.9119 16.944 21.6135 16.944C21.3151 16.944 21.029 16.8255 20.818 16.6145C20.607 16.4035 20.4885 16.1174 20.4885 15.819C20.4883 15.3579 20.3051 14.9158 19.9791 14.5896C19.6532 14.2635 19.2111 14.0801 18.75 14.0798C18.4516 14.0798 18.1655 13.9612 17.9545 13.7502C17.7435 13.5393 17.625 13.2531 17.625 12.9548Z" fill="#B389C5"/>
</g>
<defs>
<clipPath id="clip0_217_11309">
<rect width="36" height="36" fill="white"/>
</clipPath>
</defs>
</svg>
