<svg width="36" height="36" viewBox="0 0 36 36" fill="none" xmlns="http://www.w3.org/2000/svg">
<path fill-rule="evenodd" clip-rule="evenodd" d="M22.0605 3.43938C22.3417 3.72067 22.4997 4.10213 22.4997 4.49988C22.4997 4.89762 22.3417 5.27909 22.0605 5.56038L15.621 11.9999H18.879L27.4395 3.43938C27.5779 3.29611 27.7434 3.18184 27.9264 3.10323C28.1094 3.02461 28.3062 2.98323 28.5054 2.9815C28.7046 2.97977 28.9021 3.01772 29.0864 3.09315C29.2708 3.16857 29.4383 3.27995 29.5791 3.42079C29.7199 3.56162 29.8313 3.7291 29.9067 3.91345C29.9822 4.09779 30.0201 4.29531 30.0184 4.49448C30.0167 4.69365 29.9753 4.89048 29.8967 5.07348C29.8181 5.25649 29.7038 5.42201 29.5605 5.56038L23.121 11.9999H29.907C30.2726 12 30.6255 12.1336 30.8995 12.3755C31.1735 12.6175 31.3497 12.9512 31.395 13.3139C31.7598 16.2084 31.1772 19.1433 29.7343 21.6789C28.2913 24.2146 26.0658 26.2146 23.391 27.3794L23.955 29.6369C24.0102 29.858 24.0142 30.0887 23.9669 30.3116C23.9195 30.5344 23.822 30.7436 23.6818 30.9232C23.5415 31.1027 23.3622 31.248 23.1575 31.3479C22.9527 31.4478 22.7279 31.4998 22.5 31.4999H13.5C13.2722 31.4998 13.0473 31.4478 12.8426 31.3479C12.6378 31.248 12.4585 31.1027 12.3182 30.9232C12.178 30.7436 12.0805 30.5344 12.0332 30.3116C11.9858 30.0887 11.9899 29.858 12.045 29.6369L12.609 27.3794C9.93419 26.2146 7.70868 24.2146 6.26576 21.6789C4.82285 19.1433 4.24018 16.2084 4.60501 13.3139C4.65034 12.9512 4.82656 12.6175 5.10055 12.3755C5.37455 12.1336 5.72747 12 6.09301 11.9999H11.379L19.9395 3.43938C20.2208 3.15817 20.6023 3.0002 21 3.0002C21.3978 3.0002 21.7792 3.15817 22.0605 3.43938ZM7.50001 14.9999C7.49917 17.233 8.21035 19.4083 9.53022 21.2097C10.8501 23.011 12.7099 24.3447 14.8395 25.0169C15.204 25.1316 15.511 25.3812 15.6978 25.7146C15.8846 26.048 15.937 26.4401 15.8445 26.8109L15.42 28.4999H20.577L20.1555 26.8109C20.063 26.4401 20.1155 26.048 20.3022 25.7146C20.489 25.3812 20.796 25.1316 21.1605 25.0169C23.2901 24.3447 25.1499 23.011 26.4698 21.2097C27.7897 19.4083 28.5009 17.233 28.5 14.9999H7.50001Z" fill="#B389C5"/>
</svg>
