<svg width="36" height="36" viewBox="0 0 36 36" fill="none" xmlns="http://www.w3.org/2000/svg">
<path d="M3 31.5V24H33V31.5H3ZM6 27V28.5H30V27H6ZM18 20.25C17.1 20.25 16.3875 20.5 15.8625 21C15.3375 21.5 14.375 21.75 12.975 21.75C11.575 21.75 10.625 21.5 10.125 21C9.625 20.5 8.925 20.25 8.025 20.25C7.125 20.25 6.4125 20.5 5.8875 21C5.3625 21.5 4.4 21.75 3 21.75V18.75C3.9 18.75 4.6125 18.5 5.1375 18C5.6625 17.5 6.625 17.25 8.025 17.25C9.425 17.25 10.375 17.5 10.875 18C11.375 18.5 12.075 18.75 12.975 18.75C13.875 18.75 14.5875 18.5 15.1125 18C15.6375 17.5 16.6 17.25 18 17.25C19.4 17.25 20.3625 17.5 20.8875 18C21.4125 18.5 22.125 18.75 23.025 18.75C23.925 18.75 24.625 18.5 25.125 18C25.625 17.5 26.575 17.25 27.975 17.25C29.375 17.25 30.3625 17.5 30.9375 18C31.5125 18.5 32.2 18.75 33 18.75V21.75C31.6 21.75 30.6625 21.5 30.1875 21C29.7125 20.5 29.025 20.25 28.125 20.25C27.225 20.25 26.5 20.5 25.95 21C25.4 21.5 24.425 21.75 23.025 21.75C21.625 21.75 20.6625 21.5 20.1375 21C19.6125 20.5 18.9 20.25 18 20.25ZM3 15V13.5C3 10.625 4.3565 8.4065 7.0695 6.8445C9.7825 5.2825 13.426 4.501 18 4.5C22.574 4.499 26.218 5.2805 28.932 6.8445C31.646 8.4085 33.002 10.627 33 13.5V15H3ZM18 7.5C14.9 7.5 12.3065 7.8875 10.2195 8.6625C8.1325 9.4375 6.801 10.55 6.225 12H29.775C29.2 10.55 27.869 9.4375 25.782 8.6625C23.695 7.8875 21.101 7.5 18 7.5Z" fill="#B389C5"/>
</svg>
