<svg width="36" height="36" viewBox="0 0 36 36" fill="none" xmlns="http://www.w3.org/2000/svg">
<path d="M25.4537 13.563C24.7646 13.4329 24.0529 13.4985 23.3993 13.7526C22.7458 14.0066 22.1765 14.4387 21.7562 15M25.4537 13.563C28.1597 14.0625 29.3987 17.3415 27.7727 19.5H9.72616C7.92916 17.115 9.67216 13.5 12.7337 13.5M25.4537 13.563C26.3432 7.8525 20.0477 9.342 19.0157 5.883C18.7397 4.9575 18.9647 3.8565 20.2532 3C16.4612 3 13.8407 5.3355 14.3582 7.7625M14.3582 7.7625C14.5577 8.7045 15.2312 9.6615 16.4927 10.5M14.3582 7.7625C10.9787 9.0975 11.3987 14.1975 14.9897 14.925M11.7062 28.302L9.75016 19.5H27.7502L25.7942 28.302C25.2932 30.5535 25.0442 31.68 24.2207 32.34C23.3972 33 22.2452 33 19.9367 33H17.5652C15.2567 33 14.1032 33 13.2812 32.34C12.4577 31.68 12.2087 30.555 11.7062 28.302Z" stroke="#B389C5" stroke-width="2.5" stroke-linecap="round" stroke-linejoin="round"/>
</svg>
