<svg width="28" height="28" viewBox="0 0 28 28" fill="none" xmlns="http://www.w3.org/2000/svg">
<path d="M19.8334 5.25C19.8334 5.71413 19.649 6.15925 19.3208 6.48744C18.9926 6.81563 18.5475 7 18.0834 7C17.6192 7 17.1741 6.81563 16.8459 6.48744C16.5177 6.15925 16.3334 5.71413 16.3334 5.25C16.3334 4.78587 16.5177 4.34075 16.8459 4.01256C17.1741 3.68437 17.6192 3.5 18.0834 3.5C18.5475 3.5 18.9926 3.68437 19.3208 4.01256C19.649 4.34075 19.8334 4.78587 19.8334 5.25Z" stroke="#97A92C" stroke-width="1.75"/>
<path d="M17.5 24.5001L16.7254 21.4492C16.4677 20.4359 15.9371 19.5126 15.1912 18.7799L13.4167 17.0334M13.4167 17.0334C12.2419 16.1071 11.6527 15.6439 11.4252 15.0244C11.3236 14.749 11.2749 14.4569 11.2817 14.1634C11.298 13.5031 11.7052 12.8754 12.5184 11.6201L14 9.33455M13.4167 17.0334L17.5 10.8232M7.00002 13.0119C8.16669 10.7136 9.96102 9.38355 14 9.33455M14 9.33455C14.2555 9.33222 14.6347 9.33105 15.015 9.33105C15.6042 9.33105 15.8982 9.33105 16.1327 9.44072C16.3672 9.55039 16.6087 9.83739 17.0894 10.4126C17.227 10.5782 17.3694 10.7252 17.5 10.8232M17.5 10.8232C18.8475 11.8336 20.9569 12.2407 23.3334 9.56555M4.66669 20.6851L5.45769 20.8741C7.47485 21.3524 9.57019 20.4354 10.5 18.6667" stroke="#97A92C" stroke-width="1.75" stroke-linecap="round" stroke-linejoin="round"/>
</svg>
